<?xml version="1.0" standalone="no"?><!DOCTYPE svg PUBLIC "-//W3C//DTD SVG 1.1//EN" "http://www.w3.org/Graphics/SVG/1.1/DTD/svg11.dtd"><svg t="1545805666285" class="icon" style="" viewBox="0 0 1024 1024" version="1.1" xmlns="http://www.w3.org/2000/svg" p-id="1904" xmlns:xlink="http://www.w3.org/1999/xlink" width="200" height="200"><defs><style type="text/css"></style></defs><path d="M315.912531 648.239917l202.503087 0 0 75.428923-202.503087 0 0-75.428923Z" p-id="1905"></path><path d="M872.262622 64.004733 150.977062 64.004733c-48.051389 0-87.004563 38.953174-87.004563 87.005586l0 721.284537c0 48.052412 38.953174 87.004563 87.004563 87.004563l721.28556 0c48.052412 0 87.004563-38.95215 87.004563-87.004563L959.267185 151.011342C959.268208 102.95893 920.315034 64.004733 872.262622 64.004733zM201.749422 254.786871l292.202015 0c-9.061376-17.210987-18.804275-34.428114-29.220508-51.645241l48.927339-21.745257c13.59053 24.012903 26.27441 48.476061 38.054711 73.390497l269.777283 0 0 118.239961-53.004191 0 0-72.031547L254.753613 300.995285l0 72.031547-53.004191 0L201.749422 254.786871zM282.615171 398.169465 282.615171 356.717378l201.144136 0c3.170203-12.682857 4.529153-26.952862 4.076852-42.811038l50.965765 0c-0.907673 15.406898-2.494821 29.676903-4.756327 42.811038l207.938889 0 0 41.452087L521.812995 398.169465c-1.358951 3.626597-2.946099 7.023974-4.756327 10.193153 86.981027 19.027355 170.107259 39.413662 249.390977 61.158918l-15.628956 42.131563c-83.36057-25.822109-169.885202-49.828872-259.58413-72.031547-39.413662 30.807656-118.468159 54.592362-237.159398 71.352071-4.984524-14.94948-10.872628-29.899984-17.668405-44.849464 130.47154-17.210987 206.351742-39.863916 227.64572-67.953671L282.615171 398.170488zM568.021409 765.120928 315.912531 765.120928l0 31.93841-49.606815 0L266.305717 605.428879l301.715693 0L568.021409 765.120928zM846.632895 559.89994l-101.930507 0 0 202.503087c0 53.004191-24.01188 79.505775-72.031547 79.505775-24.463158 0-53.460586-0.228197-86.981027-0.679475-2.717901-18.575054-6.116301-37.374212-10.193153-56.401568 32.617885 3.620457 59.57177 5.436826 80.864726 5.436826 24.463158 0 36.694737-14.047947 36.694737-42.131563L693.056124 559.89994 176.606789 559.89994l0-44.169989 670.026106 0L846.632895 559.89994z" p-id="1906"></path></svg>