<?xml version="1.0" standalone="no"?><!DOCTYPE svg PUBLIC "-//W3C//DTD SVG 1.1//EN" "http://www.w3.org/Graphics/SVG/1.1/DTD/svg11.dtd"><svg t="1545189876309" class="icon" style="" viewBox="0 0 1025 1024" version="1.1" xmlns="http://www.w3.org/2000/svg" p-id="3331" xmlns:xlink="http://www.w3.org/1999/xlink" width="200.1953125" height="200"><defs><style type="text/css"></style></defs><path d="M391.632 497.829c-15.863 0-28.776 12.912-28.776 28.777s12.912 28.778 28.776 28.778h86.333v86.333c0 15.863 12.913 28.777 28.778 28.777 15.679 0 28.408-12.914 28.778-28.777v-86.333h85.964c16.048 0 28.962-12.915 29.146-28.778 0-15.863-12.913-28.777-28.778-28.777H535.52v-57.556h85.964c16.048 0 29.146-12.913 29.146-28.777 0-15.863-12.913-28.777-28.778-28.777H535.52v-16.972l106.44-106.441c11.252-11.068 11.252-29.331 0-40.584-11.07-11.252-29.331-11.252-40.584 0l-94.726 94.726-94.726-94.726c-11.068-11.252-29.331-11.252-40.583 0-11.253 11.068-11.253 29.331 0 40.584L477.964 365.76v16.957h-86.333c-15.863 0-28.776 12.914-28.776 28.778 0 15.864 12.912 28.777 28.776 28.777h86.333v57.556h-86.332z" p-id="3332"></path><path d="M853.732 49.93h-483.13c-13.282 0-24.35 11.622-24.35 25.827 0 14.39 11.068 25.826 24.35 25.826h483.315c66.964 0 121.566 57.74 121.566 128.761v389.973c0 71.023-54.602 128.76-121.566 128.76h-308.99L298.474 911.413c-20.845 13.467-32.651 13.282-36.525 10.884-3.505-2.03-3.689-8.487-3.689-10.515V748.708h-88.177c-66.964 0-121.567-57.739-121.567-128.76V230.16c0-71.022 54.789-128.76 121.752-128.76h42.427c13.467 0 24.35-11.622 24.35-25.827 0-14.389-11.068-25.827-24.35-25.827h-42.427C76.556 49.747 0 130.914 0 230.344v389.788c0 99.614 76.371 180.596 170.268 180.596h39.107V912.15c0 23.797 10.7 44.642 28.593 55.341 7.564 4.427 17.34 7.932 29.7 7.932 14.943 0 33.573-4.98 56.448-19.554l234.832-154.956h294.785c93.71 0 170.268-81.169 170.268-180.597V230.529C1024 130.914 947.627 49.931 853.732 49.931z" p-id="3333"></path></svg>